<svg width="1200" height="1200" viewBox="0 0 1200 1200" fill="none" xmlns="http://www.w3.org/2000/svg">
<rect width="1200" height="1200" rx="600" fill="#0033AD"/>
<path d="M425.12 597.691C423.473 626.309 445.503 650.81 474.122 652.457C475.151 652.457 476.181 652.457 477.21 652.457C506.035 652.457 529.3 629.192 529.094 600.367C529.094 571.542 505.829 548.277 477.004 548.483C449.415 548.483 426.561 570.101 425.12 597.691Z" fill="white"/>
<path d="M231.171 584.308C221.906 583.691 213.876 590.897 213.465 600.162C213.053 609.427 220.053 617.457 229.318 617.869C238.583 618.486 246.407 611.28 247.025 602.015C247.642 592.75 240.436 584.926 231.171 584.308Z" fill="white"/>
<path d="M421.827 295.856C430.063 291.738 433.357 281.444 429.239 273.208C425.121 264.973 414.827 261.678 406.591 265.796C398.355 269.914 395.061 280.003 399.179 288.238C403.297 296.68 413.385 300.18 421.827 295.856Z" fill="white"/>
<path d="M474.535 387.889C487.3 381.506 492.447 365.859 486.065 353.093C479.682 340.328 464.034 335.181 451.269 341.564C438.504 347.946 433.357 363.594 439.739 376.359C446.122 389.124 461.77 394.271 474.535 387.889Z" fill="white"/>
<path d="M297.056 451.097C306.939 457.479 320.116 454.803 326.704 444.92C333.087 435.037 330.41 421.86 320.528 415.272C310.645 408.889 297.468 411.566 290.879 421.449C284.291 431.331 287.173 444.714 297.056 451.097Z" fill="white"/>
<path d="M328.556 575.043C314.144 574.219 301.996 585.131 301.173 599.544C300.349 613.956 311.261 626.103 325.674 626.927C340.086 627.751 352.233 616.838 353.057 602.426C353.881 588.22 342.968 575.866 328.556 575.043Z" fill="white"/>
<path d="M299.94 749.432C289.44 754.785 285.116 767.55 290.469 778.257C295.822 788.757 308.588 793.081 319.294 787.728C329.794 782.375 334.118 769.609 328.765 758.903C323.412 748.403 310.441 744.079 299.94 749.432Z" fill="white"/>
<path d="M400.825 521.305C415.032 530.57 433.974 526.658 443.033 512.452C452.298 498.246 448.386 479.304 434.18 470.245C419.973 460.979 401.031 464.891 391.972 479.098C382.707 493.098 386.619 512.04 400.825 521.305Z" fill="white"/>
<path d="M720.985 385.83C732.927 393.654 749.192 390.36 757.016 378.418C764.84 366.476 761.545 350.211 749.604 342.387C737.662 334.563 721.397 337.858 713.573 349.799C705.543 361.947 708.837 378.006 720.985 385.83Z" fill="white"/>
<path d="M774.102 294.208C781.926 299.356 792.22 297.091 797.367 289.267C802.515 281.443 800.25 271.149 792.426 266.002C784.602 260.854 774.308 263.119 769.16 270.737C764.219 278.561 766.484 289.061 774.102 294.208Z" fill="white"/>
<path d="M724.896 548.071C696.278 546.424 671.571 568.454 670.13 597.073C668.483 625.692 690.513 650.398 719.132 651.84C720.161 651.84 721.19 651.84 722.014 651.84C750.633 651.84 773.898 628.574 773.898 599.749C774.104 572.366 752.486 549.512 724.896 548.071Z" fill="white"/>
<path d="M491.624 517.599C500.477 535.1 518.39 546.218 538.155 546.218C566.774 546.218 590.039 522.952 590.039 494.128C590.039 486.098 588.186 478.068 584.48 470.656C571.509 444.92 540.214 434.626 514.684 447.597C488.947 460.774 478.653 492.069 491.624 517.599Z" fill="white"/>
<path d="M899.079 451.097C909.58 445.744 913.697 432.773 908.344 422.272C902.991 411.772 890.02 407.654 879.52 413.007C869.019 418.361 864.901 431.126 870.049 441.626C875.608 452.127 888.373 456.45 899.079 451.097Z" fill="white"/>
<path d="M767.31 467.568C752.28 475.186 746.103 493.51 753.721 508.54C761.339 523.57 779.663 529.747 794.693 522.129C809.723 514.511 815.9 496.187 808.282 481.157C800.664 466.127 782.34 460.156 767.31 467.568Z" fill="white"/>
<path d="M597.451 286.385C609.187 287.003 619.276 277.943 620.099 266.208C620.923 254.472 611.658 244.383 599.922 243.56C588.186 242.942 578.098 251.795 577.274 263.531C576.656 275.473 585.715 285.561 597.451 286.385Z" fill="white"/>
<path d="M597.243 420.831C614.126 421.86 628.539 408.889 629.362 392.006C630.392 375.123 617.42 360.711 600.537 359.887C583.654 358.858 569.242 371.829 568.419 388.712C567.595 405.595 580.36 420.007 597.243 420.831Z" fill="white"/>
<path d="M431.709 732.961C446.739 725.343 452.915 707.018 445.297 691.988C437.68 676.958 419.355 670.782 404.325 678.4C389.295 686.018 383.119 704.342 390.737 719.372C398.354 734.402 416.679 740.578 431.709 732.961Z" fill="white"/>
<path d="M617.009 465.51C601.361 489.599 607.949 521.718 632.039 537.365C656.128 553.013 688.247 546.424 703.894 522.335C719.542 498.246 712.953 466.127 688.864 450.48C680.423 444.921 670.54 442.038 660.451 442.038C642.951 442.038 626.685 450.891 617.009 465.51Z" fill="white"/>
<path d="M707.394 682.93C694.423 657.193 663.128 646.899 637.598 659.87C611.861 672.841 601.567 704.136 614.538 729.667C627.509 755.403 658.804 765.698 684.335 752.727C709.865 739.961 720.366 709.078 707.6 683.342C707.6 683.136 707.6 683.136 707.394 682.93Z" fill="white"/>
<path d="M798.191 679.223C783.985 669.958 765.043 673.87 755.984 688.076C746.719 702.283 750.631 721.225 764.837 730.284C779.043 739.549 797.985 735.637 807.045 721.431C816.31 707.43 812.398 688.488 798.191 679.223Z" fill="white"/>
<path d="M897.844 601.191C898.668 586.778 887.755 574.631 873.343 573.807C858.931 572.984 846.783 583.896 845.96 598.308C845.136 612.721 856.048 624.868 870.461 625.692C884.667 626.515 897.02 615.397 897.844 601.191Z" fill="white"/>
<path d="M969.7 582.661C960.435 582.043 952.406 589.249 951.994 598.514C951.582 607.78 958.582 615.809 967.847 616.221C977.112 616.839 984.936 609.633 985.554 600.368C985.966 591.102 978.965 583.279 969.7 582.661Z" fill="white"/>
<path d="M901.962 749.432C892.079 743.049 878.902 745.726 872.314 755.609C865.931 765.491 868.608 778.668 878.491 785.257C888.373 791.639 901.55 788.963 908.139 779.08C914.727 769.197 911.845 755.815 901.962 749.432Z" fill="white"/>
<path d="M424.708 906.32C416.884 901.173 406.589 903.437 401.442 911.055C396.295 918.879 398.559 929.174 406.177 934.321C414.001 939.468 424.296 937.203 429.443 929.585C434.796 921.968 432.531 911.467 424.708 906.32Z" fill="white"/>
<path d="M777.193 904.673C768.957 908.791 765.663 919.086 769.781 927.321C773.898 935.557 784.193 938.851 792.429 934.733C800.664 930.616 803.958 920.527 799.841 912.291C795.723 903.85 785.634 900.35 777.193 904.673Z" fill="white"/>
<path d="M582.007 735.019C597.655 710.93 591.067 678.811 566.977 662.958C542.888 647.31 510.769 653.899 494.916 677.988C479.062 702.077 485.857 734.196 509.946 750.049C518.387 755.608 528.27 758.491 538.359 758.491C556.065 758.697 572.331 749.843 582.007 735.019Z" fill="white"/>
<path d="M478.034 814.699C466.093 806.875 449.827 810.169 442.003 822.111C434.18 834.052 437.474 850.318 449.416 858.142C461.357 865.965 477.623 862.671 485.446 850.73C493.476 838.788 490.182 822.523 478.034 814.699Z" fill="white"/>
<path d="M599.302 914.144C587.567 913.526 577.478 922.586 576.654 934.321C575.831 946.057 585.096 956.146 596.832 956.969C608.567 957.587 618.656 948.734 619.48 936.998C620.097 925.056 611.038 914.968 599.302 914.144Z" fill="white"/>
<path d="M599.51 779.698C582.627 778.668 568.215 791.64 567.391 808.523C566.362 825.406 579.333 839.818 596.216 840.641C613.099 841.465 627.511 828.7 628.335 811.817C629.364 795.14 616.393 780.521 599.51 779.698Z" fill="white"/>
<path d="M724.486 812.64C711.72 819.229 706.573 834.876 713.162 847.642C719.75 860.407 735.398 865.554 748.163 858.966C760.928 852.583 766.075 836.935 759.693 824.17C753.104 811.405 737.457 806.052 724.486 812.64Z" fill="white"/>
</svg>
